[Header]
FileType HTR
DataType HTRS
FileVersion 1
NumSegments 64
NumFrames 4
DataFrameRate 30
EulerRotationOrder ZYX
CalibrationUnits mm
RotationUnits Degrees
GlobalAxisofGravity Y
BoneLengthAxis Y
ScaleFactor 1.0
[SegmentNames&Hierarchy]
Hips	GLOBAL
Spine	Hips
Spine1	Spine
Spine2	Spine1
Neck	Spine2
Head	Neck
LeftEye	Head
RightEye	Head
LeftShoulder	Spine2
LeftArm	LeftShoulder
LeftForeArm	LeftArm
LeftHand	LeftForeArm
LeftHandThumb1	LeftHand
LeftHandThumb2	LeftHandThumb1
LeftHandThumb3	LeftHandThumb2
LeftHandThumb4	LeftHandThumb3
LeftHandIndex1	LeftHand
LeftHandIndex2	LeftHandIndex1
LeftHandIndex3	LeftHandIndex2
LeftHandIndex4	LeftHandIndex3
LeftHandMiddle1	LeftHand
LeftHandMiddle2	LeftHandMiddle1
LeftHandMiddle3	LeftHandMiddle2
LeftHandMiddle4	LeftHandMiddle3
LeftHandRing1	LeftHand
LeftHandRing2	LeftHandRing1
LeftHandRing3	LeftHandRing2
LeftHandRing4	LeftHandRing3
LeftHandPinky1	LeftHand
LeftHandPinky2	LeftHandPinky1
LeftHandPinky3	LeftHandPinky2
LeftHandPinky4	LeftHandPinky3
RightShoulder	Spine2
RightArm	RightShoulder
RightForeArm	RightArm
RightHand	RightForeArm
RightHandPinky1	RightHand
RightHandPinky2	RightHandPinky1
RightHandPinky3	RightHandPinky2
RightHandPinky4	RightHandPinky3
RightHandRing1	RightHand
RightHandRing2	RightHandRing1
RightHandRing3	RightHandRing2
RightHandRing4	RightHandRing3
RightHandMiddle1	RightHand
RightHandMiddle2	RightHandMiddle1
RightHandMiddle3	RightHandMiddle2
RightHandMiddle4	RightHandMiddle3
RightHandIndex1	RightHand
RightHandIndex2	RightHandIndex1
RightHandIndex3	RightHandIndex2
RightHandIndex4	RightHandIndex3
RightHandThumb1	RightHand
RightHandThumb2	RightHandThumb1
RightHandThumb3	RightHandThumb2
RightHandThumb4	RightHandThumb3
LeftUpLeg	Hips
LeftLeg	LeftUpLeg
LeftFoot	LeftLeg
LeftToeBase	LeftFoot
RightUpLeg	Hips
RightLeg	RightUpLeg
RightFoot	RightLeg
RightToeBase	RightFoot
[BasePosition]
Hips	0	0	0	0	0	0	1
Spine	0	0	0	0	0	0	1
Spine1	0	0	0	0	0	0	1
Spine2	0	0	0	0	0	0	1
Neck	0	0	0	0	0	0	1
Head	0	0	0	0	0	0	1
LeftEye	0	0	0	0	0	0	1
RightEye	0	0	0	0	0	0	1
LeftShoulder	0	0	0	0	0	0	1
LeftArm	0	0	0	0	0	0	1
LeftForeArm	0	0	0	0	0	0	1
LeftHand	0	0	0	0	0	0	1
LeftHandThumb1	0	0	0	0	0	0	1
LeftHandThumb2	0	0	0	0	0	0	1
LeftHandThumb3	0	0	0	0	0	0	1
LeftHandThumb4	0	0	0	0	0	0	1
LeftHandIndex1	0	0	0	0	0	0	1
LeftHandIndex2	0	0	0	0	0	0	1
LeftHandIndex3	0	0	0	0	0	0	1
LeftHandIndex4	0	0	0	0	0	0	1
LeftHandMiddle1	0	0	0	0	0	0	1
LeftHandMiddle2	0	0	0	0	0	0	1
LeftHandMiddle3	0	0	0	0	0	0	1
LeftHandMiddle4	0	0	0	0	0	0	1
LeftHandRing1	0	0	0	0	0	0	1
LeftHandRing2	0	0	0	0	0	0	1
LeftHandRing3	0	0	0	0	0	0	1
LeftHandRing4	0	0	0	0	0	0	1
LeftHandPinky1	0	0	0	0	0	0	1
LeftHandPinky2	0	0	0	0	0	0	1
LeftHandPinky3	0	0	0	0	0	0	1
LeftHandPinky4	0	0	0	0	0	0	1
RightShoulder	0	0	0	0	0	0	1
RightArm	0	0	0	0	0	0	1
RightForeArm	0	0	0	0	0	0	1
RightHand	0	0	0	0	0	0	1
RightHandPinky1	0	0	0	0	0	0	1
RightHandPinky2	0	0	0	0	0	0	1
RightHandPinky3	0	0	0	0	0	0	1
RightHandPinky4	0	0	0	0	0	0	1
RightHandRing1	0	0	0	0	0	0	1
RightHandRing2	0	0	0	0	0	0	1
RightHandRing3	0	0	0	0	0	0	1
RightHandRing4	0	0	0	0	0	0	1
RightHandMiddle1	0	0	0	0	0	0	1
RightHandMiddle2	0	0	0	0	0	0	1
RightHandMiddle3	0	0	0	0	0	0	1
RightHandMiddle4	0	0	0	0	0	0	1
RightHandIndex1	0	0	0	0	0	0	1
RightHandIndex2	0	0	0	0	0	0	1
RightHandIndex3	0	0	0	0	0	0	1
RightHandIndex4	0	0	0	0	0	0	1
RightHandThumb1	0	0	0	0	0	0	1
RightHandThumb2	0	0	0	0	0	0	1
RightHandThumb3	0	0	0	0	0	0	1
RightHandThumb4	0	0	0	0	0	0	1
LeftUpLeg	0	0	0	0	0	0	1
LeftLeg	0	0	0	0	0	0	1
LeftFoot	0	0	0	0	0	0	1
LeftToeBase	0	0	0	0	0	0	1
RightUpLeg	0	0	0	0	0	0	1
RightLeg	0	0	0	0	0	0	1
RightFoot	0	0	0	0	0	0	1
RightToeBase	0	0	0	0	0	0	1
[Hips]
1	0.03997629136	1031.313721	17.13725853	-2.679558565e-05	0.002573770704	-0.04135233164	1.0
2	0.1105783507	1027.576172	23.30348969	0.8447999358	0.006909302436	-0.1032546312	1.0
3	0.1951110959	1026.906494	28.29302788	1.618047714	0.01243687049	-0.1800925583	1.0
4	0.249091506	1025.848022	33.43161011	2.339452744	0.016425699	-0.2247789949	1.0
[Spine]
1	0	101.8159943	1.315000057	8.333187103	-0.00257195835	0.04132996872	1.0
2	0	101.8159943	1.315000057	8.632523537	-0.005342356395	0.103326112	1.0
3	0	101.8159943	1.315000057	9.140291214	-0.007188869175	0.1803535223	1.0
4	0	101.8159943	1.315000057	9.51096344	-0.007177547086	0.2252417654	1.0
[Spine1]
1	0	100.8349991	-10.00800037	-8.333457947	-3.106332952e-05	5.981995491e-05	1.0
2	0	100.8349991	-10.00800037	-8.087327003	-3.132520578e-05	5.968333426e-05	1.0
3	0	100.8349991	-10.00800037	-7.669796944	-3.176772225e-05	5.944825898e-05	1.0
4	0	100.8349991	-10.00800037	-7.364988804	-3.209043643e-05	5.927602979e-05	1.0
[Spine2]
1	0	91	-13.73399925	-0.0001173842393	2.28096102e-08	3.157554147e-07	1.0
2	0	91	-13.73399925	0.4213261008	2.026087387e-08	3.15921227e-07	1.0
3	0	91	-13.73399925	1.136031866	1.593023313e-08	3.161626125e-07	1.0
4	0	91	-13.73399925	1.657746315	1.276350936e-08	3.163348197e-07	1.0
[Neck]
1	0	166.7169952	-25.16200066	0	-6.066426694e-21	-4.069956008e-21	1.0
2	0	166.7169952	-25.16200066	-0.1231689304	2.679086037e-07	3.068620629e-07	1.0
3	0	166.7169952	-25.16200066	-0.1489434987	3.249569716e-07	3.722112183e-07	1.0
4	0	166.7169952	-25.16200066	-0.2113730907	3.105498649e-07	3.547451115e-07	1.0
[Head]
1	0	96.17900085	16.84999847	1.60762138e-05	3.764569556e-05	-3.040673801e-05	1.0
2	0	96.17900085	16.84999847	-0.9402366281	0.005110247992	-0.0001139396409	1.0
3	0	96.17900085	16.84999847	-2.16806674	0.01369657926	-0.000604963745	1.0
4	0	96.17900085	16.84999847	-3.151479483	0.01995611191	-0.001109085511	1.0
[LeftEye]
1	30.6760006	64.09500122	92.83599854	0	0	0	1.0
2	30.6760006	64.09500122	92.83599854	0	0	0	1.0
3	30.6760006	64.09500122	92.83599854	0	0	0	1.0
4	30.6760006	64.09500122	92.83599854	0	0	0	1.0
[RightEye]
1	-30.6760006	64.09500122	92.83499908	0	0	0	1.0
2	-30.6760006	64.09500122	92.83499908	0	0	0	1.0
3	-30.6760006	64.09500122	92.83499908	0	0	0	1.0
4	-30.6760006	64.09500122	92.83499908	0	0	0	1.0
[LeftShoulder]
1	45.70400238	109.4599991	-26.28000069	-1.922616927e-11	2.941794161e-12	1.04195733e-05	1.0
2	45.70400238	109.4599991	-26.28000069	-0.4129947126	1.380880117	-2.684728861	1.0
3	45.70400238	109.4599991	-26.28000069	-1.081714272	2.697396278	-5.973426819	1.0
4	45.70400238	109.4599991	-26.28000069	-1.84390676	3.98588419	-8.871770859	1.0
[LeftArm]
1	105.923996	-5.24600029	-22.32099915	1.635700573e-05	3.692469181e-05	0.0001638783724	1.0
2	105.923996	-5.24600029	-22.32099915	0.9553883672	-2.440558195	-13.02677822	1.0
3	105.923996	-5.24600029	-22.32099915	3.634694338	-5.113726139	-27.18790054	1.0
4	105.923996	-5.24600029	-22.32099915	6.969274998	-6.223549843	-40.82099152	1.0
[LeftForeArm]
1	278.414978	-0.0009999999311	0	4.037790935e-11	-0.4166640639	-0.0002057927195	1.0
2	278.414978	-0.0009999999311	0	9.367919915e-07	-0.1682391614	-0.0002127763437	1.0
3	278.414978	-0.0009999999311	0	6.806815804e-07	-0.03097840957	-0.0002227042714	1.0
4	278.414978	-0.0009999999311	0	1.010207143e-06	0.02865610458	-0.0002133480157	1.0
[LeftHand]
1	283.2879944	0	0	-5.894141197	-2.348031521	3.362512112	1.0
2	283.2879944	0	0	-4.505949497	-2.545332909	3.041109324	1.0
3	283.2879944	0	0	-2.148856401	-2.855112553	2.482355118	1.0
4	283.2879944	0	0	-0.4278587997	-3.077707291	2.072365761	1.0
[LeftHandThumb1]
1	24.6609993	-15.75	26.8239994	-6.515938282	-5.59445715	5.268244267	1.0
2	24.6609993	-15.75	26.8239994	-6.568777561	-4.953858852	4.843896866	1.0
3	24.6609993	-15.75	26.8239994	-6.673294067	-3.869374514	4.124270916	1.0
4	24.6609993	-15.75	26.8239994	-6.751504421	-3.077996492	3.598604202	1.0
[LeftHandThumb2]
1	32.29800034	-18.64699936	18.64699936	6.42183733	12.43068695	2.707374096	1.0
2	32.29800034	-18.64699936	18.64699936	6.591531277	12.67295456	2.792385101	1.0
3	32.29800034	-18.64699936	18.64699936	6.880738258	13.08293533	2.938747883	1.0
4	32.29800034	-18.64699936	18.64699936	7.092125893	13.38202572	3.04610467	1.0
[LeftHandThumb3]
1	26.52600098	-15.31499958	15.31499958	-7.237570763	1.261265397	13.09554291	1.0
2	26.52600098	-15.31499958	15.31499958	-7.058528423	1.444803715	13.14804363	1.0
3	26.52600098	-15.31499958	15.31499958	-6.754471302	1.755455136	13.23859787	1.0
4	26.52600098	-15.31499958	15.31499958	-6.532448769	1.982106209	13.3050499	1.0
[LeftHandThumb4]
1	19.54599953	-11.28499985	11.28499985	0	0	0	1.0
2	19.54599953	-11.28499985	11.28499985	0	0	0	1.0
3	19.54599953	-11.28499985	11.28499985	0	0	0	1.0
4	19.54599953	-11.28499985	11.28499985	0	0	0	1.0
[LeftHandIndex1]
1	91.09299469	-5.170999527	22.60099792	-0.07261706144	2.677021027	-3.107088804	1.0
2	91.09299469	-5.170999527	22.60099792	-0.08774234354	3.146817684	-3.438636065	1.0
3	91.09299469	-5.170999527	22.60099792	-0.113259621	3.942628384	-4.001130581	1.0
4	91.09299469	-5.170999527	22.60099792	-0.1317329854	4.52339077	-4.411784649	1.0
[LeftHandIndex2]
1	36.76399994	0	0	-4.246707874e-07	-3.385110525e-10	3.317828234e-09	1.0
2	36.76399994	0	0	-0.0002622077009	0.06041188911	-0.5921510458	1.0
3	36.76399994	0	0	-0.002511838218	0.1628259867	-1.596279144	1.0
4	36.76399994	0	0	-0.004493514542	0.2375748158	-2.329251289	1.0
[LeftHandIndex3]
1	28.83100128	0	0	4.168534531e-07	1.103546126e-07	-1.081612027e-06	1.0
2	28.83100128	0	0	-0.0001030385029	0.0378921628	-0.3714155555	1.0
3	28.83100128	0	0	-0.0009868716588	0.1020791307	-1.000635743	1.0
4	28.83100128	0	0	-0.001764734276	0.1489212215	-1.459846258	1.0
[LeftHandIndex4]
1	23.92700005	0	0	0	0	0	1.0
2	23.92700005	0	0	0	0	0	1.0
3	23.92700005	0	0	0	0	0	1.0
4	23.92700005	0	0	0	0	0	1.0
[LeftHandMiddle1]
1	95.33399963	0	0	-0.07261706144	2.677019835	-3.107089043	1.0
2	95.33399963	0	0	-0.1029960886	2.931277752	-3.756424427	1.0
3	95.33399963	0	0	-0.1566743404	3.362171888	-4.858115673	1.0
4	95.33399963	0	0	-0.1961632222	3.676614046	-5.662399292	1.0
[LeftHandMiddle2]
1	36.98199844	0	0	-4.246949175e-07	-4.969616748e-17	-6.212020935e-18	1.0
2	36.98199844	0	0	-0.0001045871541	0.03801912069	-0.3726624846	1.0
3	36.98199844	0	0	-0.0009948890656	0.102411896	-1.003895283	1.0
4	36.98199844	0	0	-0.00177703111	0.1494017839	-1.464558005	1.0
[LeftHandMiddle3]
1	29.50900078	0	0	4.011704959e-07	3.317408641e-07	-3.251471753e-06	1.0
2	29.50900078	0	0	-3.92002803e-05	0.02346386388	-0.2299891114	1.0
3	29.50900078	0	0	-0.000377682416	0.06323456019	-0.6198483706	1.0
4	29.50900078	0	0	-0.0006768926396	0.09226259589	-0.9043956399	1.0
[LeftHandMiddle4]
1	28.3390007	0	0	0	0	0	1.0
2	28.3390007	0	0	0	0	0	1.0
3	28.3390007	0	0	0	0	0	1.0
4	28.3390007	0	0	0	0	0	1.0
[LeftHandRing1]
1	91.04499817	-0.4390000105	-18.65100098	-0.07261706144	2.677019835	-3.107089043	1.0
2	91.04499817	-0.4390000105	-18.65100098	-0.1050421894	2.478640556	-3.788190126	1.0
3	91.04499817	-0.4390000105	-18.65100098	-0.1617558002	2.138635397	-4.943436146	1.0
4	91.04499817	-0.4390000105	-18.65100098	-0.2036156058	1.889877319	-5.786689758	1.0
[LeftHandRing2]
1	31.54000092	0	0	-4.265527309e-07	-2.752626216e-08	-2.55912056e-07	1.0
2	31.54000092	0	0	-0.0001138828156	0.03968837857	-0.3890209496	1.0
3	31.54000092	0	0	-0.001078474219	0.106744118	-1.046362758	1.0
4	31.54000092	0	0	-0.001928133424	0.1556542814	-1.525851965	1.0
[LeftHandRing3]
1	29.37700081	0	0	4.247190191e-07	-0	0	1.0
2	29.37700081	0	0	-0.0001805522479	0.05007504672	-0.490831852	1.0
3	29.37700081	0	0	-0.001726294402	0.1349494606	-1.322915912	1.0
4	29.37700081	0	0	-0.003086245619	0.1968949586	-1.930262208	1.0
[LeftHandRing4]
1	26.47500038	0	0	0	0	0	1.0
2	26.47500038	0	0	0	0	0	1.0
3	26.47500038	0	0	0	0	0	1.0
4	26.47500038	0	0	0	0	0	1.0
[LeftHandPinky1]
1	80.77799988	-4.887000084	-38.06099701	-0.07261706144	2.677019835	-3.107089043	1.0
2	80.77799988	-4.887000084	-38.06099701	-0.0979835093	1.791371346	-3.642932415	1.0
3	80.77799988	-4.887000084	-38.06099701	-0.137930721	0.2848217189	-4.561493874	1.0
4	80.77799988	-4.887000084	-38.06099701	-0.1668300927	-0.8155886531	-5.233316898	1.0
[LeftHandPinky2]
1	36	0	0	-2.026719459e-09	5.514610635e-08	-2.776484678e-07	1.0
2	36	0	0	-0.0001695490791	0.04810665175	-0.4715433419	1.0
3	36	0	0	-0.001531772199	0.1273895651	-1.24877429	1.0
4	36	0	0	-0.002723779064	0.1849276423	-1.812888265	1.0
[LeftHandPinky3]
1	21.14200211	0	0	4.325846419e-07	-1.110316248e-07	1.0882477e-06	1.0
2	21.14200211	0	0	-0.0001159559324	0.04018146545	-0.3938547969	1.0
3	21.14200211	0	0	-0.001115292893	0.1084892601	-1.063503623	1.0
4	21.14200211	0	0	-0.001997034997	0.1583761275	-1.552569151	1.0
[LeftHandPinky4]
1	19.75699997	0	0	0	0	0	1.0
2	19.75699997	0	0	0	0	0	1.0
3	19.75699997	0	0	0	0	0	1.0
4	19.75699997	0	0	0	0	0	1.0
[RightShoulder]
1	-45.70000076	109.4620056	-26.28000069	-6.541367274e-12	4.043331425e-13	-9.980806681e-06	1.0
2	-45.70000076	109.4620056	-26.28000069	-0.4129835963	-1.380885839	2.684729338	1.0
3	-45.70000076	109.4620056	-26.28000069	-1.081692815	-2.697398424	5.973429203	1.0
4	-45.70000076	109.4620056	-26.28000069	-1.843879461	-3.985885143	8.87177372	1.0
[RightArm]
1	-105.9280014	-5.248000145	-22.32099915	1.634062755e-05	3.668612771e-05	-2.139529897e-05	1.0
2	-105.9280014	-5.248000145	-22.32099915	0.9554505348	2.440622807	13.02692032	1.0
3	-105.9280014	-5.248000145	-22.32099915	3.634821892	5.113762379	27.18805313	1.0
4	-105.9280014	-5.248000145	-22.32099915	6.969447613	6.223539829	40.82112885	1.0
[RightForeArm]
1	-278.414978	0	0	1.655954367e-11	0.4164620638	-1.590929265e-13	1.0
2	-278.414978	0	0	2.286145389e-07	0.1680376977	5.625003269e-06	1.0
3	-278.414978	0	0	-5.436079391e-07	0.03077501617	1.128558551e-06	1.0
4	-278.414978	0	0	3.809167879e-07	-0.02885948494	-1.717763894e-06	1.0
[RightHand]
1	-283.2879944	0	0.0009999999311	-4.682260513	2.274720907	-2.605363846	1.0
2	-283.2879944	0	0.0009999999311	-3.29166317	2.45369339	-2.28583169	1.0
3	-283.2879944	0	0.0009999999311	-0.9309173822	2.732532024	-1.731515288	1.0
4	-283.2879944	0	0.0009999999311	0.7926806808	2.932573318	-1.325029612	1.0
[RightHandPinky1]
1	-80.76699829	-4.885000229	-38.06000137	-0.05219100788	-2.478958607	2.413315773	1.0
2	-80.76699829	-4.885000229	-38.06000137	-0.07497603446	-1.582536578	2.930839539	1.0
3	-80.76699829	-4.885000229	-38.06000137	-0.1110436022	-0.05756423622	3.818431139	1.0
4	-80.76699829	-4.885000229	-38.06000137	-0.1372077316	1.056311965	4.467670441	1.0
[RightHandPinky2]
1	-36	0	0.0009999999311	1.498062687e-07	0.001591564389	-1.712721076e-09	1.0
2	-36	0	0.0009999999311	-0.0001221269922	-0.03667326272	0.4724321663	1.0
3	-36	0	0.0009999999311	-0.001186629292	-0.09973599017	1.251157403	1.0
4	-36	0	0.0009999999311	-0.002122476231	-0.1455030441	1.816358685	1.0
[RightHandPinky3]
1	-21.14200211	0	0	-7.880537112e-09	-6.132129471e-08	1.087493956e-06	1.0
2	-21.14200211	0	0	-9.25712593e-05	-0.03196091205	0.39461568	1.0
3	-21.14200211	0	0	-0.0008891427424	-0.08629471064	1.065531135	1.0
4	-21.14200211	0	0	-0.001591395703	-0.1259759068	1.555525184	1.0
[RightHandPinky4]
1	-19.75699997	0	0	0	0	0	1.0
2	-19.75699997	0	0	0	0	0	1.0
3	-19.75699997	0	0	0	0	0	1.0
4	-19.75699997	0	0	0	0	0	1.0
[RightHandRing1]
1	-91.03599548	-0.4390000105	-18.65100098	-0.05219082162	-2.477364302	2.413315058	1.0
2	-91.03599548	-0.4390000105	-18.65100098	-0.08199455589	-2.265096188	3.09010458	1.0
3	-91.03599548	-0.4390000105	-18.65100098	-0.1338329613	-1.901624203	4.237988472	1.0
4	-91.03599548	-0.4390000105	-18.65100098	-0.1720526218	-1.635755658	5.075868607	1.0
[RightHandRing2]
1	-31.54000092	0	0	-1.426242568e-09	-6.974482858e-08	2.00128099e-07	1.0
2	-31.54000092	0	0	-9.003567538e-05	-0.03156860545	0.3897623718	1.0
3	-31.54000092	0	0	-0.0008590612561	-0.0849050954	1.048372746	1.0
4	-31.54000092	0	0	-0.001535824384	-0.1238079667	1.528784513	1.0
[RightHandRing3]
1	-29.37700081	0	0	0	0	-6.212020935e-18	1.0
2	-29.37700081	0	0	-0.0001435495651	-0.03983098641	0.4917657077	1.0
3	-29.37700081	0	0	-0.001375829102	-0.1073410064	1.325439334	1.0
4	-29.37700081	0	0	-0.00246077124	-0.15661259	1.933948278	1.0
[RightHandRing4]
1	-26.47500038	0	0	0	0	0	1.0
2	-26.47500038	0	0	0	0	0	1.0
3	-26.47500038	0	0	0	0	0	1.0
4	-26.47500038	0	0	0	0	0	1.0
[RightHandMiddle1]
1	-95.32500458	0	0	-0.05219086632	-2.477365017	2.413315773	1.0
2	-95.32500458	0	0	-0.08046745509	-2.718287945	3.067620754	1.0
3	-95.32500458	0	0	-0.1302049458	-3.126640797	4.177647591	1.0
4	-95.32500458	0	0	-0.1667468101	-3.42464447	4.987996578	1.0
[RightHandMiddle2]
1	-36.98199844	0	0	-9.693593483e-09	-1.081085301e-07	1.334652325e-06	1.0
2	-36.98199844	0	0	-8.369427815e-05	-0.03024132177	0.3733752668	1.0
3	-36.98199844	0	0	-0.0007921934011	-0.08146008104	1.005806923	1.0
4	-36.98199844	0	0	-0.001415840117	-0.1188359782	1.467364073	1.0
[RightHandMiddle3]
1	-29.50900078	0	0	-7.832228199e-09	-0.002021906665	1.085933036e-06	1.0
2	-29.50900078	0	0	-3.07292903e-05	-0.02068548277	0.2304280698	1.0
3	-29.50900078	0	0	-0.0003007813066	-0.05231940746	0.6210308075	1.0
4	-29.50900078	0	0	-0.000540491601	-0.07540864497	0.9061152935	1.0
[RightHandMiddle4]
1	-28.3390007	0	0.0009999999311	0	0	0	1.0
2	-28.3390007	0	0.0009999999311	0	0	0	1.0
3	-28.3390007	0	0.0009999999311	0	0	0	1.0
4	-28.3390007	0	0.0009999999311	0	0	0	1.0
[RightHandIndex1]
1	-91.08300018	-5.167999744	22.60099792	-0.0521908924	-2.477361441	2.41331625	1.0
2	-91.08300018	-5.167999744	22.60099792	-0.06658622622	-2.940277576	2.754377842	1.0
3	-91.08300018	-5.167999744	22.60099792	-0.09097359329	-3.724432468	3.332936525	1.0
4	-91.08300018	-5.167999744	22.60099792	-0.1086436287	-4.296689987	3.755298376	1.0
[RightHandIndex2]
1	-36.76399994	0	0	-9.669443024e-11	-1.077046341e-09	1.329666066e-08	1.0
2	-36.76399994	0	0	-0.0002092367795	-0.04805234447	0.5932819843	1.0
3	-36.76399994	0	0	-0.002002935391	-0.1295142025	1.599321127	1.0
4	-36.76399994	0	0	-0.003581461962	-0.1889707893	2.333679438	1.0
[RightHandIndex3]
1	-28.83100128	0	0	2.417301082e-11	1.346308481e-10	-1.662082694e-09	1.0
2	-28.83100128	0	0	-8.236824215e-05	-0.03013994358	0.372120291	1.0
3	-28.83100128	0	0	-0.0007864732179	-0.08119472861	1.002550602	1.0
4	-28.83100128	0	0	-0.001406598487	-0.118454501	1.462633133	1.0
[RightHandIndex4]
1	-23.92700005	0	0	0	0	0	1.0
2	-23.92700005	0	0	0	0	0	1.0
3	-23.92700005	0	0	0	0	0	1.0
4	-23.92700005	0	0	0	0	0	1.0
[RightHandThumb1]
1	-24.64799881	-15.72700024	26.82600021	-7.535459518	7.620221138	-5.027756214	1.0
2	-24.64799881	-15.72700024	26.82600021	-7.599287033	6.989675045	-4.593443394	1.0
3	-24.64799881	-15.72700024	26.82600021	-7.722471714	5.922511578	-3.857153177	1.0
4	-24.64799881	-15.72700024	26.82600021	-7.814312935	5.143815517	-3.319339991	1.0
[RightHandThumb2]
1	-32.29800034	-18.64699936	18.64699936	7.098087788	-14.10493183	-3.792291403	1.0
2	-32.29800034	-18.64699936	18.64699936	7.269311428	-14.347929	-3.877434731	1.0
3	-32.29800034	-18.64699936	18.64699936	7.561185837	-14.75914097	-4.024080753	1.0
4	-32.29800034	-18.64699936	18.64699936	7.774532795	-15.05913162	-4.131642342	1.0
[RightHandThumb3]
1	-26.52600098	-15.31399918	15.31399918	-3.950469494	-6.714652061	-14.221838	1.0
2	-26.52600098	-15.31399918	15.31399918	-3.767098665	-6.895929813	-14.28877735	1.0
3	-26.52600098	-15.31399918	15.31399918	-3.455418825	-7.202590466	-14.40388966	1.0
4	-26.52600098	-15.31399918	15.31399918	-3.227780342	-7.426297665	-14.48828793	1.0
[RightHandThumb4]
1	-19.54599953	-11.28499985	11.28499985	0	0	0	1.0
2	-19.54599953	-11.28499985	11.28499985	0	0	0	1.0
3	-19.54599953	-11.28499985	11.28499985	0	0	0	1.0
4	-19.54599953	-11.28499985	11.28499985	0	0	0	1.0
[LeftUpLeg]
1	82.07800293	-67.51699829	-15.99599934	-4.939242363	-0.228292793	-0.1924039274	1.0
2	82.07800293	-67.51699829	-15.99599934	-7.203602791	-0.2428502291	-0.1345102936	1.0
3	82.07800293	-67.51699829	-15.99599934	-8.948106766	-0.270457834	-0.08047947288	1.0
4	82.07800293	-67.51699829	-15.99599934	-10.30256081	-0.3180325627	-0.0474142991	1.0
[LeftLeg]
1	0	-443.7049866	2.845999956	13.65036106	0.2324068099	0.05653836578	1.0
2	0	-443.7049866	2.845999956	17.06861687	0.6676032543	0.3090925813	1.0
3	0	-443.7049866	2.845999956	19.26906967	1.537295699	0.8076726198	1.0
4	0	-443.7049866	2.845999956	20.91831017	2.033781052	1.169381857	1.0
[LeftFoot]
1	0	-444.2789917	-29.8219986	-8.710886955	0.01725459658	0.1970974654	1.0
2	0	-444.2789917	-29.8219986	-10.03630829	-0.7679918408	0.1557494998	1.0
3	0	-444.2789917	-29.8219986	-9.721651077	-2.023218155	0.087116763	1.0
4	0	-444.2789917	-29.8219986	-9.638667107	-2.889133453	0.06241744012	1.0
[LeftToeBase]
1	0	-87.28699493	107.1060028	-0.5424096584	4.044642843e-09	1.776527903e-08	1.0
2	0	-87.28699493	107.1060028	-1.817350864	-1.220637813e-07	1.559851448e-08	1.0
3	0	-87.28699493	107.1060028	-3.781473398	-3.358335618e-07	-4.288074962e-08	1.0
4	0	-87.28699493	107.1060028	-5.192948818	-3.68950225e-07	-2.412241429e-08	1.0
[RightUpLeg]
1	-82.07800293	-67.51699829	-15.99599934	-4.887774467	0.2271597087	0.2310125977	1.0
2	-82.07800293	-67.51699829	-15.99599934	-6.569478989	0.123918131	0.3177750111	1.0
3	-82.07800293	-67.51699829	-15.99599934	-7.103513718	0.04829908535	0.4394739568	1.0
4	-82.07800293	-67.51699829	-15.99599934	-7.719718456	-0.01869530976	0.5193551183	1.0
[RightLeg]
1	0	-443.7049866	2.861999989	13.54860592	-0.2369251698	-0.05688382685	1.0
2	0	-443.7049866	2.861999989	15.91967773	-0.8407338858	-0.339782238	1.0
3	0	-443.7049866	2.861999989	15.98936176	-1.917750597	-0.7908015251	1.0
4	0	-443.7049866	2.861999989	16.36458206	-2.613610029	-1.155059218	1.0
[RightFoot]
1	0	-444.2770081	-29.83799934	-8.660628319	-0.01202032156	-0.1531062722	1.0
2	0	-444.2770081	-29.83799934	-10.19456959	0.7403792739	-0.09973793477	1.0
3	0	-444.2770081	-29.83799934	-10.49369431	1.965850115	-0.007139050867	1.0
4	0	-444.2770081	-29.83799934	-10.96645164	2.802344561	0.0561895743	1.0
[RightToeBase]
1	0	-87.28699493	107.1060028	-1.515573604e-05	-2.909377805e-08	-1.999551955e-07	1.0
2	0	-87.28699493	107.1060028	-1.515573604e-05	-2.909377805e-08	-1.999551955e-07	1.0
3	0	-87.28699493	107.1060028	-1.515573604e-05	-2.909377805e-08	-1.999551955e-07	1.0
4	0	-87.28699493	107.1060028	-1.515573604e-05	-2.909377805e-08	-1.999551955e-07	1.0
[EndOfFile]
